<?xml version="1.0" encoding="UTF-8" standalone="no"?>
<!-- Generator: Adobe Illustrator 23.1.1, SVG Export Plug-In . SVG Version: 6.00 Build 0)  -->

<svg
   xmlns:dc="http://purl.org/dc/elements/1.1/"
   xmlns:cc="http://creativecommons.org/ns#"
   xmlns:rdf="http://www.w3.org/1999/02/22-rdf-syntax-ns#"
   xmlns:svg="http://www.w3.org/2000/svg"
   xmlns="http://www.w3.org/2000/svg"
   xmlns:sodipodi="http://sodipodi.sourceforge.net/DTD/sodipodi-0.dtd"
   xmlns:inkscape="http://www.inkscape.org/namespaces/inkscape"
   version="1.1"
   id="Layer_1"
   x="0px"
   y="0px"
   viewBox="0 0 645.65996 119.77999"
   xml:space="preserve"
   sodipodi:docname="3DOptimizer.svg"
   width="645.65997"
   height="119.78"
   inkscape:version="0.92.3 (2405546, 2018-03-11)"><metadata
   id="metadata113"><rdf:RDF><cc:Work
       rdf:about=""><dc:format>image/svg+xml</dc:format><dc:type
         rdf:resource="http://purl.org/dc/dcmitype/StillImage" /></cc:Work></rdf:RDF></metadata><defs
   id="defs111" /><sodipodi:namedview
   pagecolor="#ffffff"
   bordercolor="#666666"
   borderopacity="1"
   objecttolerance="10"
   gridtolerance="10"
   guidetolerance="10"
   inkscape:pageopacity="0"
   inkscape:pageshadow="2"
   inkscape:window-width="1916"
   inkscape:window-height="1041"
   id="namedview109"
   showgrid="false"
   inkscape:zoom="0.39645207"
   inkscape:cx="17.907874"
   inkscape:cy="59.609985"
   inkscape:window-x="1920"
   inkscape:window-y="18"
   inkscape:window-maximized="0"
   inkscape:current-layer="Layer_1" />
<style
   type="text/css"
   id="style2">
	.st0{fill:#009DE0;}
	.st1{fill:#FFFFFF;}
</style>
<polygon
   class="st0"
   points="223.68,344.83 223.68,342.95 214.86,342.95 214.86,337.48 223.86,337.48 223.86,335.6 212.75,335.6 212.75,352.56 214.86,352.56 214.86,344.83 "
   id="polygon4"
   style="fill:#009de0"
   transform="translate(-97.83,-237.47)" />
<polygon
   class="st0"
   points="238.42,344.83 238.42,342.95 229.6,342.95 229.6,337.48 238.6,337.48 238.6,335.6 227.48,335.6 227.48,352.56 229.6,352.56 229.6,344.83 "
   id="polygon6"
   style="fill:#009de0"
   transform="translate(-97.83,-237.47)" />
<polygon
   class="st0"
   points="253.16,344.83 253.16,342.95 244.33,342.95 244.33,337.48 253.34,337.48 253.34,335.6 242.22,335.6 242.22,352.56 244.33,352.56 244.33,344.83 "
   id="polygon8"
   style="fill:#009de0"
   transform="translate(-97.83,-237.47)" />
<path
   class="st0"
   d="m 172.07,113.69 c -1.5,0 -3,-0.92 -3.66,-1.98 v -5.54 c 0.66,-1.07 2.16,-1.96 3.66,-1.96 2.47,0 3.94,2.01 3.94,4.73 0,2.72 -1.47,4.75 -3.94,4.75 z m 0.49,1.71 c 3.23,0 5.47,-2.49 5.47,-6.46 0,-3.99 -2.24,-6.43 -5.47,-6.43 -1.73,0 -3.26,0.89 -4.15,2.14 v -1.83 h -1.91 v 16.96 h 1.91 v -6.54 c 1.02,1.34 2.47,2.16 4.15,2.16 z"
   id="path10"
   inkscape:connector-curvature="0"
   style="fill:#009de0" />
<path
   class="st0"
   d="m 183.68,115.09 v -8.7 c 0.56,-0.99 2.16,-1.96 3.36,-1.96 0.28,0 0.51,0.03 0.74,0.05 v -1.95 c -1.68,0 -3.1,0.97 -4.09,2.24 v -1.96 h -1.91 v 12.28 z"
   id="path12"
   inkscape:connector-curvature="0"
   style="fill:#009de0" />
<path
   class="st0"
   d="m 196.26,113.69 c -2.62,0 -4.07,-2.24 -4.07,-4.76 0,-2.49 1.45,-4.73 4.07,-4.73 2.62,0 4.07,2.24 4.07,4.73 0,2.53 -1.45,4.76 -4.07,4.76 z m 0,1.71 c 3.74,0 6.08,-2.9 6.08,-6.46 0,-3.56 -2.34,-6.43 -6.08,-6.43 -3.74,0 -6.08,2.87 -6.08,6.43 0,3.56 2.34,6.46 6.08,6.46 z"
   id="path14"
   inkscape:connector-curvature="0"
   style="fill:#009de0" />
<path
   class="st0"
   d="m 211.58,115.4 c 2.24,0 3.56,-0.92 4.5,-2.14 l -1.27,-1.17 c -0.81,1.09 -1.86,1.6 -3.13,1.6 -2.59,0 -4.25,-2.03 -4.25,-4.76 0,-2.73 1.65,-4.73 4.25,-4.73 1.27,0 2.31,0.46 3.13,1.58 l 1.27,-1.14 c -0.94,-1.22 -2.26,-2.14 -4.5,-2.14 -3.66,0 -6.13,2.8 -6.13,6.43 0,3.65 2.47,6.47 6.13,6.47 z"
   id="path16"
   inkscape:connector-curvature="0"
   style="fill:#009de0" />
<path
   class="st0"
   d="m 228.86,108.15 h -8.06 c 0.1,-1.86 1.4,-4.07 4.02,-4.07 2.79,0 4.01,2.26 4.04,4.07 z m -3.79,7.25 c 1.98,0 3.64,-0.69 4.88,-1.91 l -0.92,-1.25 c -0.99,1.02 -2.39,1.58 -3.82,1.58 -2.65,0 -4.25,-1.93 -4.4,-4.25 h 9.92 v -0.48 c 0,-3.69 -2.19,-6.59 -5.9,-6.59 -3.51,0 -6.05,2.87 -6.05,6.43 0.01,3.85 2.62,6.47 6.29,6.47 z"
   id="path18"
   inkscape:connector-curvature="0"
   style="fill:#009de0" />
<path
   class="st0"
   d="m 238.46,115.4 c 3.15,0 4.81,-1.65 4.81,-3.71 0,-4.78 -7.6,-3.03 -7.6,-5.7 0,-1.09 1.04,-1.93 2.72,-1.93 1.6,0 2.92,0.66 3.66,1.55 l 0.89,-1.32 c -0.97,-0.99 -2.44,-1.78 -4.55,-1.78 -2.92,0 -4.55,1.6 -4.55,3.54 0,4.55 7.6,2.72 7.6,5.7 0,1.22 -1.04,2.11 -2.92,2.11 -1.68,0 -3.23,-0.81 -4.04,-1.75 l -0.97,1.37 c 1.23,1.28 2.91,1.92 4.95,1.92 z"
   id="path20"
   inkscape:connector-curvature="0"
   style="fill:#009de0" />
<path
   class="st0"
   d="m 251,115.4 c 3.15,0 4.81,-1.65 4.81,-3.71 0,-4.78 -7.6,-3.03 -7.6,-5.7 0,-1.09 1.04,-1.93 2.72,-1.93 1.6,0 2.92,0.66 3.66,1.55 l 0.89,-1.32 c -0.97,-0.99 -2.44,-1.78 -4.55,-1.78 -2.92,0 -4.55,1.6 -4.55,3.54 0,4.55 7.6,2.72 7.6,5.7 0,1.22 -1.04,2.11 -2.92,2.11 -1.68,0 -3.23,-0.81 -4.04,-1.75 l -0.97,1.37 c 1.24,1.28 2.92,1.92 4.95,1.92 z"
   id="path22"
   inkscape:connector-curvature="0"
   style="fill:#009de0" />
<path
   class="st0"
   d="m 272.66,113.69 c -1.5,0 -3,-0.92 -3.66,-1.98 v -5.54 c 0.66,-1.07 2.16,-1.96 3.66,-1.96 2.47,0 3.94,2.01 3.94,4.73 0,2.72 -1.47,4.75 -3.94,4.75 z m 0.48,1.71 c 3.23,0 5.47,-2.49 5.47,-6.46 0,-3.99 -2.24,-6.43 -5.47,-6.43 -1.73,0 -3.26,0.89 -4.15,2.14 v -1.83 h -1.91 v 16.96 h 1.91 v -6.54 c 1.02,1.34 2.47,2.16 4.15,2.16 z"
   id="path24"
   inkscape:connector-curvature="0"
   style="fill:#009de0" />
<path
   class="st0"
   d="m 286.68,114.02 c -1.81,0 -3.05,-1.12 -3.05,-2.7 0,-1.55 1.25,-2.67 3.05,-2.67 1.32,0 2.62,0.51 3.36,1.5 v 2.34 c -0.74,1.03 -2.03,1.53 -3.36,1.53 z m 5.27,1.07 v -8.44 c 0,-2.98 -2.14,-4.15 -4.76,-4.15 -2.01,0 -3.59,0.66 -4.91,2.03 l 0.89,1.32 c 1.09,-1.2 2.29,-1.7 3.76,-1.7 1.78,0 3.1,0.94 3.1,2.57 v 2.21 c -0.99,-1.12 -2.39,-1.65 -4.07,-1.65 -2.09,0 -4.27,1.27 -4.27,4.04 0,2.67 2.21,4.07 4.27,4.07 1.65,0 3.08,-0.58 4.07,-1.7 v 1.4 z"
   id="path26"
   inkscape:connector-curvature="0"
   style="fill:#009de0" />
<path
   class="st0"
   d="m 298.42,115.09 v -8.7 c 0.56,-0.99 2.16,-1.96 3.36,-1.96 0.28,0 0.51,0.03 0.74,0.05 v -1.95 c -1.68,0 -3.1,0.97 -4.09,2.24 v -1.96 h -1.91 v 12.28 z"
   id="path28"
   inkscape:connector-curvature="0"
   style="fill:#009de0" />
<path
   class="st0"
   d="m 309.95,114.02 c -1.81,0 -3.05,-1.12 -3.05,-2.7 0,-1.55 1.25,-2.67 3.05,-2.67 1.32,0 2.62,0.51 3.36,1.5 v 2.34 c -0.74,1.03 -2.04,1.53 -3.36,1.53 z m 5.26,1.07 v -8.44 c 0,-2.98 -2.14,-4.15 -4.76,-4.15 -2.01,0 -3.59,0.66 -4.91,2.03 l 0.89,1.32 c 1.09,-1.2 2.29,-1.7 3.76,-1.7 1.78,0 3.1,0.94 3.1,2.57 v 2.21 c -0.99,-1.12 -2.39,-1.65 -4.07,-1.65 -2.09,0 -4.27,1.27 -4.27,4.04 0,2.67 2.21,4.07 4.27,4.07 1.65,0 3.08,-0.58 4.07,-1.7 v 1.4 z"
   id="path30"
   inkscape:connector-curvature="0"
   style="fill:#009de0" />
<path
   class="st0"
   d="m 336.51,115.09 v -8.88 c 0,-2.47 -1.2,-3.71 -3.43,-3.71 -1.78,0 -3.43,1.17 -4.12,2.29 -0.36,-1.27 -1.42,-2.29 -3.28,-2.29 -1.83,0 -3.46,1.3 -3.99,2.09 v -1.78 h -1.91 v 12.28 h 1.91 v -8.98 c 0.66,-0.99 1.98,-1.91 3.23,-1.91 1.63,0 2.26,0.99 2.26,2.54 v 8.34 h 1.91 v -9 c 0.64,-0.99 1.98,-1.88 3.26,-1.88 1.6,0 2.26,0.99 2.26,2.54 v 8.34 h 1.9 z"
   id="path32"
   inkscape:connector-curvature="0"
   style="fill:#009de0" />
<path
   class="st0"
   d="m 350.41,108.15 h -8.06 c 0.1,-1.86 1.4,-4.07 4.02,-4.07 2.79,0 4.01,2.26 4.04,4.07 z m -3.79,7.25 c 1.98,0 3.64,-0.69 4.88,-1.91 l -0.92,-1.25 c -0.99,1.02 -2.39,1.58 -3.82,1.58 -2.65,0 -4.25,-1.93 -4.4,-4.25 h 9.92 v -0.48 c 0,-3.69 -2.19,-6.59 -5.9,-6.59 -3.51,0 -6.05,2.87 -6.05,6.43 0.01,3.85 2.63,6.47 6.29,6.47 z"
   id="path34"
   inkscape:connector-curvature="0"
   style="fill:#009de0" />
<path
   class="st0"
   d="m 359.22,115.4 c 1.09,0 1.78,-0.33 2.26,-0.79 l -0.56,-1.45 c -0.25,0.28 -0.74,0.53 -1.3,0.53 -0.81,0 -1.22,-0.66 -1.22,-1.58 v -7.63 h 2.49 v -1.68 h -2.49 v -3.36 h -1.93 v 3.36 h -2.03 v 1.68 h 2.03 v 8.04 c 0,1.84 0.92,2.88 2.75,2.88 z"
   id="path36"
   inkscape:connector-curvature="0"
   style="fill:#009de0" />
<path
   class="st0"
   d="m 373.65,108.15 h -8.06 c 0.1,-1.86 1.4,-4.07 4.02,-4.07 2.8,0 4.02,2.26 4.04,4.07 z m -3.79,7.25 c 1.98,0 3.64,-0.69 4.88,-1.91 l -0.92,-1.25 c -0.99,1.02 -2.39,1.58 -3.82,1.58 -2.65,0 -4.25,-1.93 -4.4,-4.25 h 9.92 v -0.48 c 0,-3.69 -2.19,-6.59 -5.9,-6.59 -3.51,0 -6.05,2.87 -6.05,6.43 0.01,3.85 2.63,6.47 6.29,6.47 z"
   id="path38"
   inkscape:connector-curvature="0"
   style="fill:#009de0" />
<path
   class="st0"
   d="m 381.24,115.09 v -8.7 c 0.56,-0.99 2.16,-1.96 3.36,-1.96 0.28,0 0.51,0.03 0.74,0.05 v -1.95 c -1.68,0 -3.1,0.97 -4.09,2.24 v -1.96 h -1.91 v 12.28 z"
   id="path40"
   inkscape:connector-curvature="0"
   style="fill:#009de0" />
<path
   class="st0"
   d="m 401.27,113.69 c -2.62,0 -4.07,-2.24 -4.07,-4.76 0,-2.49 1.45,-4.73 4.07,-4.73 2.62,0 4.07,2.24 4.07,4.73 0,2.53 -1.45,4.76 -4.07,4.76 z m 0,1.71 c 3.74,0 6.08,-2.9 6.08,-6.46 0,-3.56 -2.34,-6.43 -6.08,-6.43 -3.74,0 -6.08,2.87 -6.08,6.43 0,3.56 2.34,6.46 6.08,6.46 z"
   id="path42"
   inkscape:connector-curvature="0"
   style="fill:#009de0" />
<path
   class="st0"
   d="m 416.74,113.69 c -1.5,0 -3,-0.92 -3.66,-1.98 v -5.54 c 0.66,-1.07 2.16,-1.96 3.66,-1.96 2.47,0 3.94,2.01 3.94,4.73 0,2.72 -1.47,4.75 -3.94,4.75 z m 0.48,1.71 c 3.23,0 5.47,-2.49 5.47,-6.46 0,-3.99 -2.24,-6.43 -5.47,-6.43 -1.73,0 -3.26,0.89 -4.15,2.14 v -1.83 h -1.9 v 16.96 h 1.91 v -6.54 c 1.02,1.34 2.46,2.16 4.14,2.16 z"
   id="path44"
   inkscape:connector-curvature="0"
   style="fill:#009de0" />
<path
   class="st0"
   d="m 429.57,115.4 c 1.09,0 1.78,-0.33 2.26,-0.79 l -0.56,-1.45 c -0.25,0.28 -0.74,0.53 -1.3,0.53 -0.81,0 -1.22,-0.66 -1.22,-1.58 v -7.63 h 2.49 v -1.68 h -2.49 v -3.36 h -1.93 v 3.36 h -2.03 v 1.68 h 2.03 v 8.04 c 0,1.84 0.92,2.88 2.75,2.88 z"
   id="path46"
   inkscape:connector-curvature="0"
   style="fill:#009de0" />
<path
   class="st0"
   d="m 434.64,115.09 h 1.91 v -12.28 h -1.91 z m 0.97,-14.04 c 0.71,0 1.27,-0.56 1.27,-1.27 0,-0.71 -0.56,-1.3 -1.27,-1.3 -0.71,0 -1.3,0.58 -1.3,1.3 0,0.71 0.59,1.27 1.3,1.27 z"
   id="path48"
   inkscape:connector-curvature="0"
   style="fill:#009de0" />
<path
   class="st0"
   d="m 457.82,115.09 v -8.88 c 0,-2.47 -1.2,-3.71 -3.43,-3.71 -1.78,0 -3.43,1.17 -4.12,2.29 -0.36,-1.27 -1.42,-2.29 -3.28,-2.29 -1.83,0 -3.46,1.3 -3.99,2.09 v -1.78 h -1.91 v 12.28 H 443 v -8.98 c 0.66,-0.99 1.98,-1.91 3.23,-1.91 1.63,0 2.26,0.99 2.26,2.54 v 8.34 h 1.91 v -9 c 0.64,-0.99 1.98,-1.88 3.26,-1.88 1.6,0 2.26,0.99 2.26,2.54 v 8.34 h 1.9 z"
   id="path50"
   inkscape:connector-curvature="0"
   style="fill:#009de0" />
<path
   class="st0"
   d="m 462.36,115.09 h 1.91 v -12.28 h -1.91 z m 0.97,-14.04 c 0.71,0 1.27,-0.56 1.27,-1.27 0,-0.71 -0.56,-1.3 -1.27,-1.3 -0.71,0 -1.3,0.58 -1.3,1.3 0,0.71 0.58,1.27 1.3,1.27 z"
   id="path52"
   inkscape:connector-curvature="0"
   style="fill:#009de0" />
<polygon
   class="st0"
   points="568.49,350.88 575.31,341.73 575.31,340.28 566.05,340.28 566.05,341.96 572.81,341.96 566.05,351.06 566.05,352.56 575.41,352.56 575.41,350.88 "
   id="polygon54"
   style="fill:#009de0"
   transform="translate(-97.83,-237.47)" />
<path
   class="st0"
   d="m 485.85,114.02 c -1.81,0 -3.05,-1.12 -3.05,-2.7 0,-1.55 1.25,-2.67 3.05,-2.67 1.32,0 2.62,0.51 3.36,1.5 v 2.34 c -0.74,1.03 -2.03,1.53 -3.36,1.53 z m 5.27,1.07 v -8.44 c 0,-2.98 -2.14,-4.15 -4.76,-4.15 -2.01,0 -3.59,0.66 -4.91,2.03 l 0.89,1.32 c 1.09,-1.2 2.29,-1.7 3.76,-1.7 1.78,0 3.1,0.94 3.1,2.57 v 2.21 c -0.99,-1.12 -2.39,-1.65 -4.07,-1.65 -2.09,0 -4.27,1.27 -4.27,4.04 0,2.67 2.21,4.07 4.27,4.07 1.65,0 3.08,-0.58 4.07,-1.7 v 1.4 z"
   id="path56"
   inkscape:connector-curvature="0"
   style="fill:#009de0" />
<path
   class="st0"
   d="m 498.81,115.4 c 1.09,0 1.78,-0.33 2.26,-0.79 l -0.56,-1.45 c -0.25,0.28 -0.74,0.53 -1.3,0.53 -0.81,0 -1.22,-0.66 -1.22,-1.58 v -7.63 h 2.49 v -1.68 h -2.49 v -3.36 h -1.93 v 3.36 h -2.03 v 1.68 h 2.03 v 8.04 c 0,1.84 0.92,2.88 2.75,2.88 z"
   id="path58"
   inkscape:connector-curvature="0"
   style="fill:#009de0" />
<path
   class="st0"
   d="m 503.88,115.09 h 1.91 v -12.28 h -1.91 z m 0.97,-14.04 c 0.71,0 1.27,-0.56 1.27,-1.27 0,-0.71 -0.56,-1.3 -1.27,-1.3 -0.71,0 -1.3,0.58 -1.3,1.3 0,0.71 0.59,1.27 1.3,1.27 z"
   id="path60"
   inkscape:connector-curvature="0"
   style="fill:#009de0" />
<path
   class="st0"
   d="m 515.69,113.69 c -2.62,0 -4.07,-2.24 -4.07,-4.76 0,-2.49 1.45,-4.73 4.07,-4.73 2.62,0 4.07,2.24 4.07,4.73 0,2.53 -1.45,4.76 -4.07,4.76 z m 0,1.71 c 3.74,0 6.08,-2.9 6.08,-6.46 0,-3.56 -2.34,-6.43 -6.08,-6.43 -3.74,0 -6.08,2.87 -6.08,6.43 0,3.56 2.35,6.46 6.08,6.46 z"
   id="path62"
   inkscape:connector-curvature="0"
   style="fill:#009de0" />
<path
   class="st0"
   d="m 535.79,115.09 v -8.62 c 0,-2.67 -1.35,-3.97 -3.89,-3.97 -1.86,0 -3.54,1.04 -4.4,2.09 v -1.78 h -1.91 v 12.28 h 1.91 v -8.98 c 0.74,-0.99 2.14,-1.91 3.64,-1.91 1.65,0 2.77,0.66 2.77,2.85 v 8.04 z"
   id="path64"
   inkscape:connector-curvature="0"
   style="fill:#009de0" />
<path
   class="st0"
   d="m 551.73,115.4 c 3.15,0 4.81,-1.65 4.81,-3.71 0,-4.78 -7.6,-3.03 -7.6,-5.7 0,-1.09 1.04,-1.93 2.72,-1.93 1.6,0 2.92,0.66 3.66,1.55 l 0.89,-1.32 c -0.97,-0.99 -2.44,-1.78 -4.55,-1.78 -2.92,0 -4.55,1.6 -4.55,3.54 0,4.55 7.6,2.72 7.6,5.7 0,1.22 -1.04,2.11 -2.92,2.11 -1.68,0 -3.23,-0.81 -4.04,-1.75 l -0.97,1.37 c 1.24,1.28 2.92,1.92 4.95,1.92 z"
   id="path66"
   inkscape:connector-curvature="0"
   style="fill:#009de0" />
<path
   class="st0"
   d="m 565.73,113.69 c -2.62,0 -4.07,-2.24 -4.07,-4.76 0,-2.49 1.45,-4.73 4.07,-4.73 2.62,0 4.07,2.24 4.07,4.73 0,2.53 -1.45,4.76 -4.07,4.76 z m 0,1.71 c 3.74,0 6.08,-2.9 6.08,-6.46 0,-3.56 -2.34,-6.43 -6.08,-6.43 -3.74,0 -6.08,2.87 -6.08,6.43 0,3.56 2.34,6.46 6.08,6.46 z"
   id="path68"
   inkscape:connector-curvature="0"
   style="fill:#009de0" />
<path
   class="st0"
   d="m 578.07,115.09 v -10.61 h 2.49 v -1.68 h -2.49 v -0.94 c 0,-1.58 0.69,-2.42 1.96,-2.42 0.61,0 1.09,0.23 1.5,0.58 l 0.79,-1.22 c -0.76,-0.71 -1.6,-0.94 -2.59,-0.94 -2.16,0 -3.56,1.48 -3.56,3.99 v 0.94 h -2.03 v 1.68 h 2.03 v 10.61 h 1.9 z"
   id="path70"
   inkscape:connector-curvature="0"
   style="fill:#009de0" />
<path
   class="st0"
   d="m 586.7,115.4 c 1.09,0 1.78,-0.33 2.26,-0.79 l -0.56,-1.45 c -0.25,0.28 -0.74,0.53 -1.3,0.53 -0.81,0 -1.22,-0.66 -1.22,-1.58 v -7.63 h 2.49 v -1.68 h -2.49 v -3.36 h -1.93 v 3.36 h -2.03 v 1.68 h 2.03 v 8.04 c 0.01,1.84 0.92,2.88 2.75,2.88 z"
   id="path72"
   inkscape:connector-curvature="0"
   style="fill:#009de0" />
<polygon
   class="st0"
   points="704.08,340.28 701.08,350.07 697.87,340.28 696.22,340.28 692.99,350.07 689.99,340.28 688,340.28 691.92,352.56 693.83,352.56 697.03,342.69 700.24,352.56 702.17,352.56 706.09,340.28 "
   id="polygon74"
   style="fill:#009de0"
   transform="translate(-97.83,-237.47)" />
<path
   class="st0"
   d="m 615.49,114.02 c -1.81,0 -3.05,-1.12 -3.05,-2.7 0,-1.55 1.25,-2.67 3.05,-2.67 1.32,0 2.62,0.51 3.36,1.5 v 2.34 c -0.74,1.03 -2.04,1.53 -3.36,1.53 z m 5.27,1.07 v -8.44 c 0,-2.98 -2.14,-4.15 -4.76,-4.15 -2.01,0 -3.59,0.66 -4.91,2.03 l 0.89,1.32 c 1.09,-1.2 2.29,-1.7 3.76,-1.7 1.78,0 3.1,0.94 3.1,2.57 v 2.21 c -0.99,-1.12 -2.39,-1.65 -4.07,-1.65 -2.09,0 -4.27,1.27 -4.27,4.04 0,2.67 2.21,4.07 4.27,4.07 1.65,0 3.08,-0.58 4.07,-1.7 v 1.4 z"
   id="path76"
   inkscape:connector-curvature="0"
   style="fill:#009de0" />
<path
   class="st0"
   d="m 627.22,115.09 v -8.7 c 0.56,-0.99 2.16,-1.96 3.36,-1.96 0.28,0 0.51,0.03 0.74,0.05 v -1.95 c -1.68,0 -3.1,0.97 -4.09,2.24 v -1.96 h -1.91 v 12.28 z"
   id="path78"
   inkscape:connector-curvature="0"
   style="fill:#009de0" />
<path
   class="st0"
   d="m 643.79,108.15 h -8.06 c 0.1,-1.86 1.4,-4.07 4.02,-4.07 2.8,0 4.02,2.26 4.04,4.07 z M 640,115.4 c 1.98,0 3.64,-0.69 4.88,-1.91 l -0.92,-1.25 c -0.99,1.02 -2.39,1.58 -3.82,1.58 -2.65,0 -4.25,-1.93 -4.4,-4.25 h 9.92 v -0.48 c 0,-3.69 -2.19,-6.59 -5.9,-6.59 -3.51,0 -6.05,2.87 -6.05,6.43 0.01,3.85 2.63,6.47 6.29,6.47 z"
   id="path80"
   inkscape:connector-curvature="0"
   style="fill:#009de0" />
<path
   class="st0"
   d="m 129.32,70.18 c 11.16,0 18.35,-5.65 18.35,-13.68 0,-6.98 -6.14,-10.67 -10.89,-11.17 5.16,-0.9 10.19,-4.75 10.19,-10.61 0,-7.75 -6.7,-12.63 -17.58,-12.63 -8.16,0 -14.03,3.14 -17.79,7.4 l 4.95,6.21 c 3.28,-3.14 7.33,-4.81 11.86,-4.81 4.81,0 8.65,1.81 8.65,5.51 0,3.42 -3.49,4.96 -8.65,4.96 -1.74,0 -4.95,0 -5.79,-0.07 v 8.93 c 0.7,-0.07 3.84,-0.14 5.79,-0.14 6.49,0 9.35,1.67 9.35,5.37 0,3.49 -3.14,5.93 -8.79,5.93 -4.54,0 -9.63,-1.95 -12.77,-5.3 l -5.23,6.63 c 3.41,4.19 9.83,7.47 18.35,7.47 z"
   id="path82"
   inkscape:connector-curvature="0"
   style="fill:#009de0" />
<path
   class="st0"
   d="m 172.15,60.63 h -8.44 v -29.1 h 8.51 c 9.49,0 14.51,6.35 14.51,14.51 0,7.96 -5.37,14.59 -14.58,14.59 z m 0.07,8.72 c 14.51,0 24.63,-9.21 24.63,-23.31 0,-13.96 -10.12,-23.24 -24.7,-23.24 H 153.8 v 46.54 h 18.42 z"
   id="path84"
   inkscape:connector-curvature="0"
   style="fill:#009de0" />
<path
   class="st0"
   d="m 224.67,61.39 c -8.65,0 -14.16,-6.63 -14.16,-15.28 0,-8.72 5.51,-15.28 14.16,-15.28 8.58,0 14.1,6.56 14.1,15.28 0,8.65 -5.51,15.28 -14.1,15.28 z m 0,8.79 c 14.03,0 24.28,-10.05 24.28,-24.07 0,-14.02 -10.26,-24.07 -24.28,-24.07 -14.09,0 -24.35,10.05 -24.35,24.07 0,14.03 10.26,24.07 24.35,24.07 z"
   id="path86"
   inkscape:connector-curvature="0"
   style="fill:#009de0" />
<path
   class="st0"
   d="m 270.85,62.3 c -2.86,0 -6.14,-1.74 -7.61,-3.91 V 46.53 c 1.54,-2.23 4.74,-3.84 7.61,-3.84 5.09,0 8.58,3.98 8.58,9.77 0.01,5.86 -3.48,9.84 -8.58,9.84 z m 2.79,7.88 c 8.65,0 14.93,-6.49 14.93,-17.72 0,-11.23 -6.28,-17.65 -14.93,-17.65 -4.12,0 -7.81,1.82 -10.4,5.09 v -4.25 h -8.86 v 46.54 h 8.86 V 65.03 c 2.8,3.48 6.43,5.15 10.4,5.15 z"
   id="path88"
   inkscape:connector-curvature="0"
   style="fill:#009de0" />
<path
   class="st0"
   d="m 305.03,70.18 c 3.7,0 6.07,-0.98 7.4,-2.16 l -1.89,-6.77 c -0.49,0.56 -1.74,1.05 -3.07,1.05 -1.95,0 -3.07,-1.61 -3.07,-3.77 V 43.39 h 6.84 v -7.74 h -6.84 v -9.21 h -8.86 v 9.21 h -5.58 v 7.74 h 5.58 v 17.52 c 0,6.07 3.28,9.27 9.49,9.27 z"
   id="path90"
   inkscape:connector-curvature="0"
   style="fill:#009de0" />
<path
   class="st0"
   d="m 315.97,69.35 h 8.86 v -33.7 h -8.86 z m 4.4,-37.33 c 2.93,0 5.3,-2.37 5.3,-5.3 0,-2.93 -2.37,-5.24 -5.3,-5.24 -2.86,0 -5.23,2.3 -5.23,5.24 -0.01,2.92 2.37,5.3 5.23,5.3 z"
   id="path92"
   inkscape:connector-curvature="0"
   style="fill:#009de0" />
<path
   class="st0"
   d="M 383.01,69.35 V 45 c 0,-6.91 -3.7,-10.19 -9.91,-10.19 -5.16,0 -9.63,3.07 -11.58,6.07 -1.18,-3.77 -4.4,-6.07 -9.35,-6.07 -5.16,0 -9.56,3.21 -11.02,5.16 v -4.32 h -8.86 v 33.7 h 8.86 V 46.6 c 1.32,-1.81 3.91,-3.91 6.98,-3.91 3.63,0 5.02,2.23 5.02,5.37 v 21.28 h 8.93 V 46.59 c 1.26,-1.81 3.84,-3.91 6.98,-3.91 3.63,0 5.02,2.23 5.02,5.37 v 21.28 h 8.93 z"
   id="path94"
   inkscape:connector-curvature="0"
   style="fill:#009de0" />
<path
   class="st0"
   d="m 390.46,69.35 h 8.86 v -33.7 h -8.86 z m 4.4,-37.33 c 2.93,0 5.3,-2.37 5.3,-5.3 0,-2.93 -2.37,-5.24 -5.3,-5.24 -2.86,0 -5.23,2.3 -5.23,5.24 0,2.92 2.37,5.3 5.23,5.3 z"
   id="path96"
   inkscape:connector-curvature="0"
   style="fill:#009de0" />
<polygon
   class="st0"
   points="514.94,299.07 530.43,279.46 530.43,273.12 503.14,273.12 503.14,280.86 518.36,280.86 503.14,300.19 503.14,306.82 530.71,306.82 530.71,299.07 "
   id="polygon98"
   style="fill:#009de0"
   transform="translate(-97.83,-237.47)" />
<path
   class="st0"
   d="m 462.52,49.25 h -16.6 c 0.35,-3.35 2.72,-7.19 8.23,-7.19 5.86,0.01 8.09,3.98 8.37,7.19 z m -7.82,20.93 c 5.24,0 10.54,-1.61 13.89,-4.68 l -3.98,-5.86 c -2.16,2.09 -6.07,3.28 -8.93,3.28 -5.72,0 -9.07,-3.42 -9.7,-7.54 h 25.05 v -2.09 c 0,-10.96 -6.77,-18.49 -16.88,-18.49 -10.19,0 -17.44,7.88 -17.44,17.65 -0.01,10.83 7.73,17.73 17.99,17.73 z"
   id="path100"
   inkscape:connector-curvature="0"
   style="fill:#009de0" />
<path
   class="st0"
   d="M 484.97,69.35 V 47.09 c 1.47,-2.16 5.37,-3.84 8.31,-3.84 1.05,0 1.81,0.07 2.44,0.21 v -8.65 c -4.19,0 -8.31,2.44 -10.75,5.37 v -4.53 h -8.86 v 33.7 z"
   id="path102"
   inkscape:connector-curvature="0"
   style="fill:#009de0" />
<path
   class="st0"
   d="m 0,42.48 c 0,42.05 0.44,42.48 42.48,42.48 42.05,0 42.48,-0.44 42.48,-42.48 C 84.96,0.43 84.52,0 42.48,0 0.44,0 0,0.43 0,42.48 Z"
   id="path104"
   inkscape:connector-curvature="0"
   style="fill:#009de0" />
<path
   class="st1"
   d="M 62.82,38.88 C 62.79,38.67 62.71,38.14 62.68,37.99 62.64,37.73 62.4,36.59 62.28,36.13 62.1,35.41 61.82,34.52 61.59,33.9 61.44,33.51 61.18,32.88 61.1,32.68 61.05,32.57 60.94,32.33 60.86,32.15 60.72,31.84 60.31,31.05 60.14,30.75 60.1,30.67 60.02,30.53 59.96,30.43 59.71,29.98 58.93,28.82 58.51,28.27 58.41,28.13 58.26,27.94 58.19,27.85 57.28,26.65 55.67,25.07 54.24,23.98 53.8,23.64 53.85,23.68 53.3,23.3 52.24,22.57 50.52,21.62 49.63,21.27 49.54,21.23 49.38,21.17 49.28,21.12 48.81,20.91 47.5,20.46 46.77,20.26 46.32,20.14 45.44,19.93 45.22,19.89 45.12,19.88 44.9,19.83 44.8,19.82 44.59,19.78 43.94,19.67 43.77,19.66 43.66,19.65 43.54,19.63 43.51,19.62 43.46,19.6 43.45,19.38 43.45,15.46 v -4.14 l 0.12,0.01 c 0.81,0.08 1.84,0.21 2.31,0.29 0.28,0.05 0.47,0.09 0.81,0.15 0.1,0.01 0.29,0.05 0.42,0.08 0.14,0.03 0.35,0.08 0.47,0.11 0.22,0.05 1.14,0.28 1.62,0.41 0.34,0.09 1.69,0.52 1.88,0.6 0.16,0.07 0.91,0.35 1.1,0.42 0.07,0.02 0.22,0.09 0.35,0.15 0.13,0.05 0.33,0.15 0.46,0.2 0.41,0.16 1.73,0.8 2.18,1.05 0.33,0.19 0.6,0.33 0.78,0.43 0.09,0.05 0.23,0.13 0.31,0.19 0.08,0.05 0.15,0.09 0.16,0.09 0.01,0 0.15,0.08 0.3,0.18 0.16,0.1 0.29,0.19 0.3,0.19 0.06,0 1.51,1.01 1.96,1.36 0.02,0.01 0.15,0.12 0.3,0.22 0.23,0.17 0.94,0.73 0.98,0.78 0.01,0.01 0.09,0.08 0.18,0.15 0.09,0.07 0.17,0.14 0.18,0.15 0.02,0.02 0.58,0.52 0.8,0.72 0.25,0.22 1.56,1.54 1.9,1.91 0.18,0.19 0.52,0.59 0.76,0.88 0.24,0.29 0.45,0.54 0.46,0.55 0.01,0.01 0.09,0.11 0.17,0.22 0.08,0.11 0.16,0.21 0.17,0.21 0.05,0.05 0.35,0.45 0.72,0.97 0.15,0.21 0.31,0.44 0.37,0.53 0.14,0.19 0.91,1.4 1.02,1.6 0.05,0.08 0.12,0.21 0.16,0.28 0.04,0.07 0.1,0.18 0.14,0.25 0.04,0.07 0.13,0.23 0.2,0.34 0.22,0.39 1.1,2.15 1.1,2.22 0,0.01 0.05,0.13 0.12,0.27 0.44,0.94 1.07,2.75 1.47,4.22 0.22,0.8 0.58,2.49 0.66,3.05 0.01,0.08 0.03,0.24 0.05,0.35 0.02,0.11 0.04,0.26 0.05,0.33 0.01,0.07 0.03,0.18 0.04,0.23 0.06,0.34 0.09,0.96 0.06,1.12 l -0.03,0.18 -4.09,0.01 -4.09,0.01 z m -47.01,0.07 c 0,-0.1 0.17,-1.31 0.23,-1.64 0.04,-0.2 0.07,-0.41 0.08,-0.47 0.25,-1.44 0.94,-3.69 1.6,-5.2 0.22,-0.5 0.68,-1.46 0.86,-1.78 0.07,-0.12 0.17,-0.32 0.24,-0.44 0.47,-0.88 1.14,-1.9 1.85,-2.84 0.26,-0.35 0.54,-0.71 0.62,-0.8 0.08,-0.09 0.21,-0.25 0.28,-0.35 0.15,-0.18 0.46,-0.53 0.77,-0.88 0.44,-0.49 1.62,-1.62 1.97,-1.9 0.06,-0.05 0.18,-0.15 0.25,-0.21 0.24,-0.21 0.33,-0.28 0.61,-0.5 0.15,-0.12 0.36,-0.28 0.47,-0.37 0.26,-0.21 1.58,-1.13 1.62,-1.13 0.01,0 0.12,-0.07 0.26,-0.16 0.57,-0.38 1.94,-1.13 2.64,-1.44 0.09,-0.04 0.26,-0.12 0.37,-0.16 0.11,-0.05 0.27,-0.12 0.35,-0.16 0.59,-0.27 2,-0.77 2.9,-1.04 0.84,-0.25 2.3,-0.57 3.16,-0.7 0.25,-0.04 0.49,-0.07 0.53,-0.08 0.11,-0.02 0.32,-0.04 0.54,-0.07 l 0.19,-0.02 v 1.5 c 0,0.92 -0.01,1.5 -0.03,1.52 -0.02,0.01 -0.24,0.05 -0.49,0.08 -1.93,0.28 -4.11,0.9 -5.84,1.67 -0.71,0.32 -2.25,1.13 -2.63,1.39 -0.05,0.03 -0.22,0.14 -0.37,0.24 -0.83,0.52 -1.74,1.21 -2.58,1.94 -0.87,0.76 -1.94,1.87 -2.57,2.65 -0.11,0.14 -0.24,0.29 -0.28,0.35 -0.17,0.19 -1.07,1.46 -1.31,1.85 -0.19,0.31 -0.59,0.99 -0.73,1.24 -0.17,0.31 -0.76,1.5 -0.85,1.73 -0.05,0.12 -0.11,0.26 -0.13,0.32 -0.04,0.09 -0.17,0.42 -0.33,0.85 -0.02,0.07 -0.07,0.18 -0.1,0.25 -0.11,0.29 -0.41,1.26 -0.51,1.65 -0.22,0.85 -0.29,1.16 -0.41,1.85 -0.08,0.43 -0.2,1.22 -0.2,1.3 C 18.84,39 18.16,39 17.32,39 16.14,38.99 15.81,38.98 15.81,38.95 Z M 37.36,67.76 C 36.32,67.61 34.74,67.29 33.98,67.08 33.82,67.03 33.57,66.96 33.43,66.92 33.11,66.83 32.1,66.5 31.7,66.35 31.53,66.28 31.28,66.19 31.15,66.15 31.02,66.1 30.85,66.03 30.78,66 30.7,65.96 30.63,65.93 30.62,65.93 c -0.01,0 -0.12,-0.05 -0.24,-0.1 -0.12,-0.06 -0.26,-0.12 -0.29,-0.13 -0.3,-0.13 -1.45,-0.69 -1.8,-0.89 -0.63,-0.35 -0.65,-0.36 -1.22,-0.7 C 25.79,63.32 24.75,62.57 23.56,61.53 22.95,61 22.92,60.98 22.14,60.2 21.43,59.49 20.67,58.63 20.18,58 20.06,57.85 19.88,57.61 19.78,57.48 19.68,57.35 19.54,57.16 19.47,57.07 19.4,56.97 19.3,56.82 19.23,56.73 19.17,56.64 19.06,56.49 19,56.41 18.87,56.22 18.27,55.29 18.18,55.12 18.11,54.99 18.02,54.84 17.91,54.64 17.71,54.28 17.6,54.08 17.42,53.73 17.31,53.52 17.19,53.29 17.16,53.23 17.12,53.17 17,52.91 16.89,52.65 c -0.11,-0.26 -0.25,-0.56 -0.3,-0.67 -0.05,-0.11 -0.12,-0.27 -0.14,-0.35 -0.03,-0.08 -0.11,-0.28 -0.17,-0.44 -0.14,-0.33 -0.52,-1.42 -0.61,-1.75 -0.03,-0.12 -0.12,-0.4 -0.18,-0.62 -0.22,-0.76 -0.43,-1.66 -0.6,-2.64 -0.12,-0.68 -0.25,-1.62 -0.25,-1.82 v -0.11 h 4.22 l 0.02,0.19 c 0.01,0.11 0.03,0.22 0.04,0.26 0.01,0.04 0.02,0.13 0.03,0.22 0.01,0.08 0.03,0.2 0.04,0.27 0.01,0.07 0.03,0.15 0.03,0.19 0.11,0.66 0.38,1.81 0.57,2.46 0.24,0.82 0.71,2.1 1,2.75 0.15,0.33 0.24,0.52 0.32,0.7 0.09,0.2 0.5,0.98 0.62,1.17 0.04,0.07 0.11,0.18 0.14,0.25 0.04,0.07 0.1,0.16 0.12,0.21 0.03,0.05 0.1,0.16 0.15,0.25 0.25,0.41 1.11,1.68 1.18,1.74 0.01,0.01 0.13,0.16 0.26,0.33 0.73,0.97 2.03,2.33 3.06,3.2 0.5,0.43 1,0.82 1.48,1.16 0.4,0.29 1.31,0.9 1.35,0.9 0.01,0 0.12,0.07 0.24,0.14 0.12,0.08 0.33,0.2 0.46,0.27 0.13,0.07 0.32,0.17 0.42,0.23 0.2,0.11 1.16,0.59 1.18,0.59 0.01,0 0.13,0.05 0.27,0.12 0.14,0.07 0.33,0.15 0.41,0.19 0.43,0.19 1.77,0.66 2.42,0.85 1.1,0.31 2.3,0.57 3.22,0.68 l 0.32,0.04 v 2.11 2.11 H 38.02 C 37.9,67.82 37.61,67.79 37.36,67.76 Z m 6.2,1.75 -0.11,-0.01 0.02,-5.88 0.18,-0.03 c 0.31,-0.04 0.87,-0.13 1.05,-0.16 0.09,-0.02 0.21,-0.04 0.27,-0.05 1.42,-0.24 3.44,-0.88 4.91,-1.54 1.35,-0.6 3.16,-1.67 4.26,-2.52 0.44,-0.34 0.65,-0.5 0.67,-0.52 0.01,-0.01 0.11,-0.09 0.22,-0.18 0.61,-0.5 1.59,-1.44 2.14,-2.05 0.47,-0.52 0.57,-0.64 0.74,-0.85 0.1,-0.13 0.22,-0.28 0.27,-0.33 0.55,-0.64 1.57,-2.19 2.13,-3.22 0.17,-0.32 0.73,-1.45 0.73,-1.48 0,-0.01 0.05,-0.12 0.1,-0.24 0.29,-0.64 0.8,-2.07 1.04,-2.96 0.24,-0.86 0.45,-1.92 0.58,-2.81 l 0.06,-0.42 5.92,-0.02 -0.02,0.28 c -0.02,0.29 -0.18,1.5 -0.2,1.59 -0.01,0.03 -0.05,0.27 -0.1,0.54 -0.05,0.27 -0.15,0.79 -0.23,1.15 -0.14,0.63 -0.19,0.81 -0.35,1.37 -0.04,0.14 -0.09,0.33 -0.12,0.42 -0.19,0.69 -0.78,2.34 -1.05,2.94 -0.04,0.08 -0.06,0.15 -0.06,0.15 0,0.01 -0.05,0.13 -0.11,0.26 -0.06,0.13 -0.16,0.35 -0.22,0.48 -0.06,0.13 -0.24,0.49 -0.4,0.81 -0.28,0.56 -0.35,0.68 -0.55,1.04 -0.05,0.08 -0.13,0.24 -0.19,0.35 -0.06,0.11 -0.16,0.27 -0.22,0.37 -0.06,0.09 -0.16,0.26 -0.24,0.38 -0.43,0.72 -1.42,2.11 -2.04,2.88 -0.12,0.15 -0.25,0.3 -0.28,0.35 -0.39,0.47 -1.11,1.26 -1.72,1.87 -0.94,0.94 -1.6,1.52 -2.9,2.53 -0.31,0.24 -1.14,0.82 -1.58,1.11 -0.61,0.4 -0.82,0.53 -0.93,0.59 -0.92,0.53 -2.02,1.11 -2.6,1.37 -0.11,0.05 -0.32,0.15 -0.46,0.21 -0.15,0.07 -0.42,0.18 -0.6,0.25 -0.18,0.07 -0.38,0.15 -0.43,0.18 -0.2,0.09 -1.64,0.6 -2,0.7 -0.15,0.04 -0.47,0.14 -0.72,0.21 -0.78,0.23 -2.53,0.61 -3.1,0.69 -0.06,0.01 -0.33,0.04 -0.58,0.08 -0.26,0.04 -0.56,0.08 -0.67,0.09 -0.11,0.01 -0.24,0.03 -0.3,0.03 -0.05,0.01 -0.15,0.01 -0.21,0 z"
   id="path106"
   inkscape:connector-curvature="0"
   style="fill:#ffffff" />
</svg>