<?xml version="1.0" encoding="UTF-8" standalone="no"?>
<!-- Created with Inkscape (http://www.inkscape.org/) -->

<svg
   xmlns:dc="http://purl.org/dc/elements/1.1/"
   xmlns:cc="http://creativecommons.org/ns#"
   xmlns:rdf="http://www.w3.org/1999/02/22-rdf-syntax-ns#"
   xmlns:svg="http://www.w3.org/2000/svg"
   xmlns="http://www.w3.org/2000/svg"
   xmlns:sodipodi="http://sodipodi.sourceforge.net/DTD/sodipodi-0.dtd"
   xmlns:inkscape="http://www.inkscape.org/namespaces/inkscape"
   width="13.229167mm"
   height="13.229167mm"
   viewBox="0 0 13.229167 13.229167"
   version="1.1"
   id="svg8"
   inkscape:version="0.92.3 (2405546, 2018-03-11)"
   sodipodi:docname="logo.svg">
  <defs
     id="defs2" />
  <sodipodi:namedview
     id="base"
     pagecolor="#ffffff"
     bordercolor="#666666"
     borderopacity="1.0"
     inkscape:pageopacity="0.0"
     inkscape:pageshadow="2"
     inkscape:zoom="4"
     inkscape:cx="15.746579"
     inkscape:cy="5.5079633"
     inkscape:document-units="mm"
     inkscape:current-layer="g981"
     showgrid="false"
     inkscape:window-width="1916"
     inkscape:window-height="1041"
     inkscape:window-x="1920"
     inkscape:window-y="18"
     inkscape:window-maximized="0" />
  <metadata
     id="metadata5">
    <rdf:RDF>
      <cc:Work
         rdf:about="">
        <dc:format>image/svg+xml</dc:format>
        <dc:type
           rdf:resource="http://purl.org/dc/dcmitype/StillImage" />
        <dc:title />
      </cc:Work>
    </rdf:RDF>
  </metadata>
  <g
     inkscape:label="Layer 1"
     inkscape:groupmode="layer"
     id="layer1"
     transform="translate(-58.026529,-144.31614)">
    <g
       id="g981"
       transform="matrix(0.26458333,0,0,0.26458333,-37.21629,55.037787)">
      <g
         id="g985"
         transform="matrix(0.58851225,0,0,0.58851225,302.39871,197.676)">
        <path
           style="fill:#009de0"
           inkscape:connector-curvature="0"
           class="st0"
           d="m 97.83,279.95 c 0,42.05 0.44,42.48 42.48,42.48 42.05,0 42.48,-0.44 42.48,-42.48 0,-42.05 -0.44,-42.48 -42.48,-42.48 -42.04,0 -42.48,0.43 -42.48,42.48 z"
           id="path917" />
        <path
           style="fill:#ffffff"
           inkscape:connector-curvature="0"
           class="st1"
           d="m 160.65,276.35 c -0.03,-0.21 -0.11,-0.74 -0.14,-0.89 -0.04,-0.26 -0.28,-1.4 -0.4,-1.86 -0.18,-0.72 -0.46,-1.61 -0.69,-2.23 -0.15,-0.39 -0.41,-1.02 -0.49,-1.22 -0.05,-0.11 -0.16,-0.35 -0.24,-0.53 -0.14,-0.31 -0.55,-1.1 -0.72,-1.4 -0.04,-0.08 -0.12,-0.22 -0.18,-0.32 -0.25,-0.45 -1.03,-1.61 -1.45,-2.16 -0.1,-0.14 -0.25,-0.33 -0.32,-0.42 -0.91,-1.2 -2.52,-2.78 -3.95,-3.87 -0.44,-0.34 -0.39,-0.3 -0.94,-0.68 -1.06,-0.73 -2.78,-1.68 -3.67,-2.03 -0.09,-0.04 -0.25,-0.1 -0.35,-0.15 -0.47,-0.21 -1.78,-0.66 -2.51,-0.86 -0.45,-0.12 -1.33,-0.33 -1.55,-0.37 -0.1,-0.01 -0.32,-0.06 -0.42,-0.07 -0.21,-0.04 -0.86,-0.15 -1.03,-0.16 -0.11,-0.01 -0.23,-0.03 -0.26,-0.04 -0.05,-0.02 -0.06,-0.24 -0.06,-4.16 v -4.14 l 0.12,0.01 c 0.81,0.08 1.84,0.21 2.31,0.29 0.28,0.05 0.47,0.09 0.81,0.15 0.1,0.01 0.29,0.05 0.42,0.08 0.14,0.03 0.35,0.08 0.47,0.11 0.22,0.05 1.14,0.28 1.62,0.41 0.34,0.09 1.69,0.52 1.88,0.6 0.16,0.07 0.91,0.35 1.1,0.42 0.07,0.02 0.22,0.09 0.35,0.15 0.13,0.05 0.33,0.15 0.46,0.2 0.41,0.16 1.73,0.8 2.18,1.05 0.33,0.19 0.6,0.33 0.78,0.43 0.09,0.05 0.23,0.13 0.31,0.19 0.08,0.05 0.15,0.09 0.16,0.09 0.01,0 0.15,0.08 0.3,0.18 0.16,0.1 0.29,0.19 0.3,0.19 0.06,0 1.51,1.01 1.96,1.36 0.02,0.01 0.15,0.12 0.3,0.22 0.23,0.17 0.94,0.73 0.98,0.78 0.01,0.01 0.09,0.08 0.18,0.15 0.09,0.07 0.17,0.14 0.18,0.15 0.02,0.02 0.58,0.52 0.8,0.72 0.25,0.22 1.56,1.54 1.9,1.91 0.18,0.19 0.52,0.59 0.76,0.88 0.24,0.29 0.45,0.54 0.46,0.55 0.01,0.01 0.09,0.11 0.17,0.22 0.08,0.11 0.16,0.21 0.17,0.21 0.05,0.05 0.35,0.45 0.72,0.97 0.15,0.21 0.31,0.44 0.37,0.53 0.14,0.19 0.91,1.4 1.02,1.6 0.05,0.08 0.12,0.21 0.16,0.28 0.04,0.07 0.1,0.18 0.14,0.25 0.04,0.07 0.13,0.23 0.2,0.34 0.22,0.39 1.1,2.15 1.1,2.22 0,0.01 0.05,0.13 0.12,0.27 0.44,0.94 1.07,2.75 1.47,4.22 0.22,0.8 0.58,2.49 0.66,3.05 0.01,0.08 0.03,0.24 0.05,0.35 0.02,0.11 0.04,0.26 0.05,0.33 0.01,0.07 0.03,0.18 0.04,0.23 0.06,0.34 0.09,0.96 0.06,1.12 l -0.03,0.18 -4.09,0.01 -4.09,0.01 z m -47.01,0.07 c 0,-0.1 0.17,-1.31 0.23,-1.64 0.04,-0.2 0.07,-0.41 0.08,-0.47 0.25,-1.44 0.94,-3.69 1.6,-5.2 0.22,-0.5 0.68,-1.46 0.86,-1.78 0.07,-0.12 0.17,-0.32 0.24,-0.44 0.47,-0.88 1.14,-1.9 1.85,-2.84 0.26,-0.35 0.54,-0.71 0.62,-0.8 0.08,-0.09 0.21,-0.25 0.28,-0.35 0.15,-0.18 0.46,-0.53 0.77,-0.88 0.44,-0.49 1.62,-1.62 1.97,-1.9 0.06,-0.05 0.18,-0.15 0.25,-0.21 0.24,-0.21 0.33,-0.28 0.61,-0.5 0.15,-0.12 0.36,-0.28 0.47,-0.37 0.26,-0.21 1.58,-1.13 1.62,-1.13 0.01,0 0.12,-0.07 0.26,-0.16 0.57,-0.38 1.94,-1.13 2.64,-1.44 0.09,-0.04 0.26,-0.12 0.37,-0.16 0.11,-0.05 0.27,-0.12 0.35,-0.16 0.59,-0.27 2,-0.77 2.9,-1.04 0.84,-0.25 2.3,-0.57 3.16,-0.7 0.25,-0.04 0.49,-0.07 0.53,-0.08 0.11,-0.02 0.32,-0.04 0.54,-0.07 l 0.19,-0.02 v 1.5 c 0,0.92 -0.01,1.5 -0.03,1.52 -0.02,0.01 -0.24,0.05 -0.49,0.08 -1.93,0.28 -4.11,0.9 -5.84,1.67 -0.71,0.32 -2.25,1.13 -2.63,1.39 -0.05,0.03 -0.22,0.14 -0.37,0.24 -0.83,0.52 -1.74,1.21 -2.58,1.94 -0.87,0.76 -1.94,1.87 -2.57,2.65 -0.11,0.14 -0.24,0.29 -0.28,0.35 -0.17,0.19 -1.07,1.46 -1.31,1.85 -0.19,0.31 -0.59,0.99 -0.73,1.24 -0.17,0.31 -0.76,1.5 -0.85,1.73 -0.05,0.12 -0.11,0.26 -0.13,0.32 -0.04,0.09 -0.17,0.42 -0.33,0.85 -0.02,0.07 -0.07,0.18 -0.1,0.25 -0.11,0.29 -0.41,1.26 -0.51,1.65 -0.22,0.85 -0.29,1.16 -0.41,1.85 -0.08,0.43 -0.2,1.22 -0.2,1.3 0,0.01 -0.68,0.01 -1.52,0.01 -1.18,-0.01 -1.51,-0.02 -1.51,-0.05 z m 21.55,28.81 c -1.04,-0.15 -2.62,-0.47 -3.38,-0.68 -0.16,-0.05 -0.41,-0.12 -0.55,-0.16 -0.32,-0.09 -1.33,-0.42 -1.73,-0.57 -0.17,-0.07 -0.42,-0.16 -0.55,-0.2 -0.13,-0.05 -0.3,-0.12 -0.37,-0.15 -0.08,-0.04 -0.15,-0.07 -0.16,-0.07 -0.01,0 -0.12,-0.05 -0.24,-0.1 -0.12,-0.06 -0.26,-0.12 -0.29,-0.13 -0.3,-0.13 -1.45,-0.69 -1.8,-0.89 -0.63,-0.35 -0.65,-0.36 -1.22,-0.7 -1.28,-0.79 -2.32,-1.54 -3.51,-2.58 -0.61,-0.53 -0.64,-0.55 -1.42,-1.33 -0.71,-0.71 -1.47,-1.57 -1.96,-2.2 -0.12,-0.15 -0.3,-0.39 -0.4,-0.52 -0.1,-0.13 -0.24,-0.32 -0.31,-0.41 -0.07,-0.1 -0.17,-0.25 -0.24,-0.34 -0.06,-0.09 -0.17,-0.24 -0.23,-0.32 -0.13,-0.19 -0.73,-1.12 -0.82,-1.29 -0.07,-0.13 -0.16,-0.28 -0.27,-0.48 -0.2,-0.36 -0.31,-0.56 -0.49,-0.91 -0.11,-0.21 -0.23,-0.44 -0.26,-0.5 -0.04,-0.06 -0.16,-0.32 -0.27,-0.58 -0.11,-0.26 -0.25,-0.56 -0.3,-0.67 -0.05,-0.11 -0.12,-0.27 -0.14,-0.35 -0.03,-0.08 -0.11,-0.28 -0.17,-0.44 -0.14,-0.33 -0.52,-1.42 -0.61,-1.75 -0.03,-0.12 -0.12,-0.4 -0.18,-0.62 -0.22,-0.76 -0.43,-1.66 -0.6,-2.64 -0.12,-0.68 -0.25,-1.62 -0.25,-1.82 v -0.11 h 4.22 l 0.02,0.19 c 0.01,0.11 0.03,0.22 0.04,0.26 0.01,0.04 0.02,0.13 0.03,0.22 0.01,0.08 0.03,0.2 0.04,0.27 0.01,0.07 0.03,0.15 0.03,0.19 0.11,0.66 0.38,1.81 0.57,2.46 0.24,0.82 0.71,2.1 1,2.75 0.15,0.33 0.24,0.52 0.32,0.7 0.09,0.2 0.5,0.98 0.62,1.17 0.04,0.07 0.11,0.18 0.14,0.25 0.04,0.07 0.1,0.16 0.12,0.21 0.03,0.05 0.1,0.16 0.15,0.25 0.25,0.41 1.11,1.68 1.18,1.74 0.01,0.01 0.13,0.16 0.26,0.33 0.73,0.97 2.03,2.33 3.06,3.2 0.5,0.43 1,0.82 1.48,1.16 0.4,0.29 1.31,0.9 1.35,0.9 0.01,0 0.12,0.07 0.24,0.14 0.12,0.08 0.33,0.2 0.46,0.27 0.13,0.07 0.32,0.17 0.42,0.23 0.2,0.11 1.16,0.59 1.18,0.59 0.01,0 0.13,0.05 0.27,0.12 0.14,0.07 0.33,0.15 0.41,0.19 0.43,0.19 1.77,0.66 2.42,0.85 1.1,0.31 2.3,0.57 3.22,0.68 l 0.32,0.04 v 2.11 2.11 h -0.19 c -0.12,-0.01 -0.41,-0.04 -0.66,-0.07 z m 6.2,1.75 -0.11,-0.01 0.02,-5.88 0.18,-0.03 c 0.31,-0.04 0.87,-0.13 1.05,-0.16 0.09,-0.02 0.21,-0.04 0.27,-0.05 1.42,-0.24 3.44,-0.88 4.91,-1.54 1.35,-0.6 3.16,-1.67 4.26,-2.52 0.44,-0.34 0.65,-0.5 0.67,-0.52 0.01,-0.01 0.11,-0.09 0.22,-0.18 0.61,-0.5 1.59,-1.44 2.14,-2.05 0.47,-0.52 0.57,-0.64 0.74,-0.85 0.1,-0.13 0.22,-0.28 0.27,-0.33 0.55,-0.64 1.57,-2.19 2.13,-3.22 0.17,-0.32 0.73,-1.45 0.73,-1.48 0,-0.01 0.05,-0.12 0.1,-0.24 0.29,-0.64 0.8,-2.07 1.04,-2.96 0.24,-0.86 0.45,-1.92 0.58,-2.81 l 0.06,-0.42 5.92,-0.02 -0.02,0.28 c -0.02,0.29 -0.18,1.5 -0.2,1.59 -0.01,0.03 -0.05,0.27 -0.1,0.54 -0.05,0.27 -0.15,0.79 -0.23,1.15 -0.14,0.63 -0.19,0.81 -0.35,1.37 -0.04,0.14 -0.09,0.33 -0.12,0.42 -0.19,0.69 -0.78,2.34 -1.05,2.94 -0.04,0.08 -0.06,0.15 -0.06,0.15 0,0.01 -0.05,0.13 -0.11,0.26 -0.06,0.13 -0.16,0.35 -0.22,0.48 -0.06,0.13 -0.24,0.49 -0.4,0.81 -0.28,0.56 -0.35,0.68 -0.55,1.04 -0.05,0.08 -0.13,0.24 -0.19,0.35 -0.06,0.11 -0.16,0.27 -0.22,0.37 -0.06,0.09 -0.16,0.26 -0.24,0.38 -0.43,0.72 -1.42,2.11 -2.04,2.88 -0.12,0.15 -0.25,0.3 -0.28,0.35 -0.39,0.47 -1.11,1.26 -1.72,1.87 -0.94,0.94 -1.6,1.52 -2.9,2.53 -0.31,0.24 -1.14,0.82 -1.58,1.11 -0.61,0.4 -0.82,0.53 -0.93,0.59 -0.92,0.53 -2.02,1.11 -2.6,1.37 -0.11,0.05 -0.32,0.15 -0.46,0.21 -0.15,0.07 -0.42,0.18 -0.6,0.25 -0.18,0.07 -0.38,0.15 -0.43,0.18 -0.2,0.09 -1.64,0.6 -2,0.7 -0.15,0.04 -0.47,0.14 -0.72,0.21 -0.78,0.23 -2.53,0.61 -3.1,0.69 -0.06,0.01 -0.33,0.04 -0.58,0.08 -0.26,0.04 -0.56,0.08 -0.67,0.09 -0.11,0.01 -0.24,0.03 -0.3,0.03 -0.05,0.01 -0.15,0.01 -0.21,0 z"
           id="path919" />
      </g>
    </g>
  </g>
  <style
     id="style815"
     type="text/css">
	.st0{fill:#009DE0;}
	.st1{fill:#FFFFFF;}
</style>
</svg>
